<svg width="120" height="120" viewBox="0 0 120 120" fill="none" xmlns="http://www.w3.org/2000/svg">
<rect width="120" height="120" rx="60" fill="#F3F7FD"/>
<path d="M88.9774 30.6864C90.2101 29.4204 92.2094 29.4209 93.4428 30.6864C94.6756 31.9524 94.6751 34.0057 93.4428 35.2726L61.8639 67.7367C61.2718 68.3449 60.4686 68.6866 59.6312 68.6868C58.7936 68.6868 57.9907 68.3449 57.3984 67.7367L47.9247 58.0069C46.6919 56.7403 46.6916 54.6872 47.9247 53.4208C49.1579 52.1547 51.1571 52.1547 52.3902 53.4208L59.6312 60.8574L88.9774 30.6864Z" fill="#04CD83"/>
<path d="M53.5027 90.2584C55.623 90.5722 57.7922 90.7369 59.9998 90.7369C61.2817 90.7369 62.5504 90.6783 63.8045 90.5709C60.3767 91.046 56.896 90.9417 53.5027 90.2584ZM88.2869 52.7887C89.8724 52.7887 91.158 54.1086 91.158 55.7369V58.4488L91.1326 59.7594C91.0439 61.9831 90.7313 64.1807 90.2088 66.3199C86.6597 71.7835 81.6706 76.2238 75.7771 79.1022C77.4541 77.7157 78.9674 76.1126 80.2722 74.3199C83.6078 69.7374 85.4122 64.1703 85.4158 58.4488V55.7369C85.4158 54.1086 86.7014 52.7887 88.2869 52.7887ZM52.6209 26.7965C59.2623 25.2556 66.211 25.9605 72.4304 28.8063C73.8785 29.4689 74.5304 31.2126 73.8855 32.6998C73.2403 34.1868 71.5435 34.8562 70.0955 34.194C65.0064 31.8651 59.32 31.2884 53.8855 32.5494C48.451 33.8105 43.5582 36.8412 39.9383 41.191C36.3185 45.5408 34.1652 50.9775 33.7986 56.6871C33.4323 62.3965 34.8738 68.0746 37.906 72.8746C39.1018 74.7673 40.5206 76.4825 42.1199 77.9889C36.4153 74.7181 31.6934 69.93 28.5008 64.1754C28.0479 61.5929 27.8981 58.9485 28.0681 56.2985C28.5162 49.3204 31.1493 42.6772 35.573 37.361C39.9974 32.0445 45.9787 28.3378 52.6209 26.7965Z" fill="#118DF5"/>
<path d="M20.7045 65.0174C22.1923 64.3314 23.9714 64.9476 24.6782 66.3938C30.9057 79.1365 44.2625 87.9366 59.7274 87.9371C71.6512 87.9369 82.3181 82.7079 89.4366 74.4708C90.4965 73.2453 92.3792 73.0868 93.6404 74.1168C94.9008 75.147 95.0637 76.9774 94.0045 78.2034C85.801 87.6958 73.4873 93.7368 59.7274 93.7371C41.8731 93.7366 26.467 83.5696 19.2887 68.8803C18.5825 67.4338 19.2167 65.7045 20.7045 65.0174ZM97.0168 64.7371C98.6644 64.7371 100 66.0354 100 67.6371C100 69.2387 98.6644 70.5371 97.0168 70.5371C95.3695 70.5369 94.0337 69.2386 94.0337 67.6371C94.0337 66.0356 95.3695 64.7373 97.0168 64.7371Z" fill="#118DF5"/>
</svg>
