<svg width="120" height="120" viewBox="0 0 120 120" fill="none" xmlns="http://www.w3.org/2000/svg">
<rect width="120" height="120" rx="60" fill="#F3F7FD"/>
<path d="M50.8867 69.943V54.3098C50.8869 52.7296 52.168 51.4483 53.7483 51.4482C55.3285 51.4482 56.6096 52.7295 56.6098 54.3098V69.943C56.6096 71.5232 55.3285 72.8045 53.7483 72.8045C52.1681 72.8045 50.8869 71.5231 50.8867 69.943ZM63.3929 69.943V54.3098C63.3931 52.7295 64.6742 51.4482 66.2544 51.4482C67.8347 51.4483 69.1158 52.7296 69.116 54.3098V69.943C69.1158 71.5231 67.8346 72.8045 66.2544 72.8045C64.6742 72.8045 63.3931 71.5232 63.3929 69.943Z" fill="#04CD83"/>
<path d="M88.1385 37.3799C89.7187 37.3799 90.9998 38.6612 91 40.2414C91 41.8218 89.7188 43.103 88.1385 43.103H84.5625L82.5477 73.3205C82.3862 75.7423 82.2562 77.7256 82.0204 79.3314C81.7796 80.9716 81.401 82.4491 80.6204 83.8194C79.3959 85.9688 77.5482 87.6961 75.3221 88.7749C73.9029 89.4627 72.4039 89.7428 70.7513 89.874C69.1333 90.0025 67.146 90.0007 64.7189 90.0007H55.2811C52.854 90.0007 50.8667 90.0025 49.2487 89.874C47.5961 89.7428 46.0971 89.4627 44.6779 88.7749C42.4518 87.6961 40.6041 85.9688 39.3796 83.8194C38.599 82.4491 38.2204 80.9716 37.9796 79.3314C37.7438 77.7256 37.6138 75.7422 37.4523 73.3205L35.4375 43.103H31.8615C30.2812 43.103 29 41.8218 29 40.2414C29.0002 38.6612 30.2813 37.3799 31.8615 37.3799H88.1385ZM43.1624 72.9396C43.3299 75.4522 43.446 77.1706 43.6412 78.4996C43.8312 79.794 44.0678 80.4854 44.3528 80.9858C45.0048 82.1303 45.988 83.0512 47.1734 83.6256C47.6915 83.8767 48.3975 84.0661 49.7014 84.1696C51.0405 84.2759 52.7628 84.2777 55.2811 84.2777H64.7189C67.2372 84.2777 68.9595 84.2759 70.2986 84.1696C71.6025 84.0661 72.3085 83.8767 72.8266 83.6256C74.012 83.0512 74.9952 82.1303 75.6472 80.9858C75.9322 80.4854 76.1688 79.794 76.3588 78.4996C76.554 77.1706 76.6701 75.4522 76.8376 72.9396L78.8273 43.103H41.1727L43.1624 72.9396ZM69.3792 28.0007C70.9596 28.0007 72.2407 29.2819 72.2407 30.8623C72.2407 32.4427 70.9596 33.7238 69.3792 33.7238H50.6208C49.0404 33.7238 47.7593 32.4427 47.7593 30.8623C47.7593 29.2819 49.0404 28.0007 50.6208 28.0007H69.3792Z" fill="#118DF5"/>
<path d="M96 46.7371C96 26.8548 79.8823 10.7371 60 10.7371C40.1177 10.7371 24 26.8548 24 46.7371C24 66.6193 40.1177 82.7371 60 82.7371V90.7371C35.6995 90.7371 16 71.0376 16 46.7371C16 22.4365 35.6995 2.73706 60 2.73706C84.3005 2.73706 104 22.4365 104 46.7371C104 71.0376 84.3005 90.7371 60 90.7371V82.7371C79.8823 82.7371 96 66.6193 96 46.7371Z" fill="#F3F7FD"/>
<path d="M20.7045 65.0174C22.1923 64.3314 23.9714 64.9476 24.6782 66.3938C30.9057 79.1365 44.2625 87.9366 59.7274 87.9371C71.6512 87.9369 82.3181 82.7079 89.4366 74.4708C90.4965 73.2453 92.3792 73.0868 93.6404 74.1168C94.9008 75.147 95.0637 76.9774 94.0045 78.2034C85.801 87.6958 73.4873 93.7368 59.7274 93.7371C41.8731 93.7366 26.467 83.5696 19.2887 68.8803C18.5825 67.4338 19.2167 65.7045 20.7045 65.0174ZM97.0168 64.7371C98.6644 64.7371 100 66.0354 100 67.6371C100 69.2387 98.6644 70.5371 97.0168 70.5371C95.3695 70.5369 94.0337 69.2386 94.0337 67.6371C94.0337 66.0356 95.3695 64.7373 97.0168 64.7371Z" fill="#118DF5"/>
</svg>
