<svg preserveAspectRatio="none" width="100%" height="100%" overflow="visible" style="display: block;" viewBox="0 0 189 66" fill="none" xmlns="http://www.w3.org/2000/svg">
<g id="Group 4445370">
<rect id="Rectangle 1592" y="13" width="163" height="14" rx="7" fill="var(--fill-0, white)"/>
<path id="Subtract" d="M176.5 27C180.09 27 183 29.9101 183 33.5C183 37.0899 180.09 40 176.5 40H29.6582C33.2479 39.9998 36.1582 37.0897 36.1582 33.5C36.1582 29.9103 33.2479 27.0002 29.6582 27H176.5Z" fill="var(--fill-0, white)"/>
<path id="Subtract_2" d="M158.521 40C154.931 40.0001 152.021 42.9102 152.021 46.5C152.021 50.0898 154.931 52.9999 158.521 53H6.5C2.91015 53 0 50.0899 0 46.5C0 42.9101 2.91015 40 6.5 40H158.521Z" fill="var(--fill-0, white)"/>
<rect id="Rectangle 1596" x="22" y="53" width="149" height="13" rx="6.5" fill="var(--fill-0, white)"/>
<rect id="Rectangle 1593" x="37" width="91" height="13" rx="6.5" fill="var(--fill-0, white)"/>
<circle id="Ellipse 1414" cx="182.5" cy="59.5" r="6.5" fill="var(--fill-0, white)"/>
</g>
</svg>
