<svg preserveAspectRatio="none" width="100%" height="100%" overflow="visible" style="display: block;" viewBox="0 0 95 110" fill="none" xmlns="http://www.w3.org/2000/svg">
<g id="Group 4445371">
<g id="Vector 117">
<path d="M93 108V73.5L81 38H13L2 73.5V108H93Z" fill="var(--fill-0, white)"/>
<path d="M8.5 73.5H11M93 73.5H62C61.6826 75.4812 61.3344 77.414 60.9105 79.2626C57.6732 93.3786 38.3258 94.0292 33.8254 80.2638C33.1416 78.1721 32.5436 75.909 32 73.5H17.5M93 73.5V108H2V73.5L13 38H81L93 73.5Z" stroke="var(--stroke-0, #CACDDF)" stroke-width="4" stroke-linecap="round" stroke-linejoin="round"/>
</g>
<path id="Vector 118" d="M20.5069 49.282L11 74H32.5V78L35.5 84.5L43 90H52.5L60 83L62 74H84L74.0052 49.2511C73.6999 48.495 72.9662 48 72.1508 48H22.3736C21.5461 48 20.804 48.5097 20.5069 49.282Z" fill="var(--fill-0, #E9EAF4)"/>
<path id="Vector 119" d="M8.5 73.5H11M93 73.5H62C61.6826 75.4812 61.3344 77.414 60.9105 79.2626C57.6732 93.3786 38.3258 94.0292 33.8254 80.2638C33.1416 78.1721 32.5436 75.909 32 73.5H17.5M93 73.5V108H2V73.5L13 38H81L93 73.5Z" stroke="var(--stroke-0, #CACDDF)" stroke-width="4" stroke-linecap="round" stroke-linejoin="round"/>
<g id="Group 4445369">
<path id="Vector 119_2" d="M48 23.5V2" stroke="var(--stroke-0, white)" stroke-width="4" stroke-linecap="round"/>
<path id="Vector 120" d="M64.9999 23.0267L78.752 6.5" stroke="var(--stroke-0, white)" stroke-width="4" stroke-linecap="round"/>
<path id="Vector 121" d="M30.752 24.0267L17 7.5" stroke="var(--stroke-0, white)" stroke-width="4" stroke-linecap="round"/>
</g>
</g>
</svg>
