<svg width="120" height="120" viewBox="0 0 120 120" fill="none" xmlns="http://www.w3.org/2000/svg">
<rect width="120" height="120" rx="60" fill="#F3F7FD"/>
<path d="M53.3954 28.2777C60.052 26.8465 66.993 27.6065 73.1835 30.4418C79.3744 33.2776 84.4855 38.0379 87.7499 44.0141C91.014 49.9902 92.2582 56.8626 91.2987 63.6039C91.2369 64.0377 91.1653 64.4693 91.0858 64.8988C87.826 70.4666 83.114 75.0788 77.4686 78.2182C77.7684 77.9441 78.0639 77.6644 78.3514 77.3754C82.2808 73.4257 84.8296 68.3121 85.6151 62.7963C86.4005 57.2804 85.3806 51.6568 82.7098 46.767C80.039 41.8775 75.8581 37.9827 70.7929 35.6625C65.7275 33.3424 60.0482 32.7206 54.6014 33.892C49.1547 35.0635 44.2317 37.9641 40.5682 42.1615C36.9048 46.3591 34.6983 51.6296 34.2743 57.185C33.8504 62.7398 35.2314 68.2837 38.2147 72.9887L39.6307 75.2182C39.9277 75.686 40.0685 76.2069 40.0741 76.7231C35.5706 73.7246 31.7819 69.7388 29.0155 65.0746C28.4953 62.3493 28.3341 59.5505 28.5477 56.7494C29.0659 49.9595 31.7647 43.5176 36.2421 38.3871C40.7197 33.2566 46.7379 29.7096 53.3954 28.2777Z" fill="#118DF5"/>
<path d="M20.7045 65.0174C22.1923 64.3314 23.9714 64.9476 24.6782 66.3938C30.9057 79.1365 44.2625 87.9366 59.7274 87.9371C71.6512 87.9369 82.3181 82.7079 89.4366 74.4708C90.4965 73.2453 92.3792 73.0868 93.6404 74.1168C94.9008 75.147 95.0637 76.9774 94.0045 78.2034C85.801 87.6958 73.4873 93.7368 59.7274 93.7371C41.8731 93.7366 26.467 83.5696 19.2887 68.8803C18.5825 67.4338 19.2167 65.7045 20.7045 65.0174ZM97.0168 64.7371C98.6644 64.7371 100 66.0354 100 67.6371C100 69.2387 98.6644 70.5371 97.0168 70.5371C95.3695 70.5369 94.0337 69.2386 94.0337 67.6371C94.0337 66.0356 95.3695 64.7373 97.0168 64.7371Z" fill="#118DF5"/>
<circle cx="60" cy="44" r="4" fill="#04CD83"/>
<rect x="56" y="53" width="8" height="28" rx="4" fill="#04CD83"/>
</svg>
